<svg width="300" height="300" viewBox="0 0 300 300" fill="none" xmlns="http://www.w3.org/2000/svg">
<rect width="300" height="300" fill="black"/>
<path d="M97 159.4L128 114.4H184L150 166.4L97 159.4ZM150 166.4H101H150ZM150 166.4L122 100H112H140.5L150 166.4ZM206.7 159C205.794 159 204.897 159.178 204.059 159.525C203.222 159.872 202.462 160.38 201.821 161.021C201.18 161.662 200.672 162.422 200.325 163.259C199.978 164.097 199.8 164.994 199.8 165.9C199.8 166.806 199.978 167.703 200.325 168.541C200.672 169.378 201.18 170.138 201.821 170.779C202.462 171.42 203.222 171.928 204.059 172.275C204.897 172.622 205.794 172.8 206.7 172.8C208.53 172.8 210.285 172.073 211.579 170.779C212.873 169.485 213.6 167.73 213.6 165.9C213.6 164.07 212.873 162.315 211.579 161.021C210.285 159.727 208.53 159 206.7 159V159ZM206.7 159L184.5 114.4V100H205C208.8 100 211.9 103.2 211.9 107C211.9 110.8 208.8 114 205 114H202.5L206.7 159ZM127.6 165.9C127.6 184.843 112.243 200.2 93.3 200.2C74.357 200.2 59 184.843 59 165.9C59 146.957 74.357 131.6 93.3 131.6C112.243 131.6 127.6 146.957 127.6 165.9ZM241 165.9C241 184.843 225.643 200.2 206.7 200.2C187.757 200.2 172.4 184.843 172.4 165.9C172.4 146.957 187.757 131.6 206.7 131.6C225.643 131.6 241 146.957 241 165.9ZM100.2 165.9C100.2 167.73 99.473 169.485 98.179 170.779C96.885 172.073 95.13 172.8 93.3 172.8C91.47 172.8 89.715 172.073 88.421 170.779C87.127 169.485 86.4 167.73 86.4 165.9C86.4 164.07 87.127 162.315 88.421 161.021C89.715 159.727 91.47 159 93.3 159C95.13 159 96.885 159.727 98.179 161.021C99.473 162.315 100.2 164.07 100.2 165.9Z" stroke="#FEC74B" stroke-width="4" stroke-miterlimit="10" stroke-linecap="round" stroke-linejoin="round"/>
</svg>
